<svg xmlns="http://www.w3.org/2000/svg" viewBox="0 0 512 512" role="img" aria-label="Starbucks Nutrition Calculator icon">
  <rect width="512" height="512" rx="96" fill="#0F3D2E" />
  <circle cx="256" cy="256" r="176" fill="#FBF7EF" />
  <path
    d="M176 224h160c8.8 0 16 7.2 16 16v64c0 53-43 96-96 96s-96-43-96-96v-64c0-8.8 7.2-16 16-16z"
    fill="none"
    stroke="#1C5C45"
    stroke-width="18"
  />
  <path d="M336 232h20c17.7 0 32 14.3 32 32s-14.3 32-32 32h-20" fill="none" stroke="#1C5C45" stroke-width="18" stroke-linecap="round" />
  <path d="M204 200c0-14 10-18 10-32s-10-18-10-32" fill="none" stroke="#B7863B" stroke-width="14" stroke-linecap="round" />
  <path d="M256 200c0-14 10-18 10-32s-10-18-10-32" fill="none" stroke="#B7863B" stroke-width="14" stroke-linecap="round" />
  <path d="M308 200c0-14 10-18 10-32s-10-18-10-32" fill="none" stroke="#B7863B" stroke-width="14" stroke-linecap="round" />
</svg>
